<svg width="960" height="680" viewBox="0 0 960 680" fill="none" xmlns="http://www.w3.org/2000/svg">
  <rect width="960" height="680" fill="#F7F1E8"/>
  <rect x="78" y="84" width="804" height="508" rx="18" fill="#FFFFFF" stroke="#DED6CA" stroke-width="2"/>
  <path d="M120 464H840" stroke="#0B2341" stroke-width="10" stroke-linecap="round"/>
  <rect x="150" y="312" width="190" height="152" fill="#C8AA73"/>
  <path d="M150 312L196 268H386L340 312H150Z" fill="#D8BE91"/>
  <path d="M340 312L386 268V420L340 464V312Z" fill="#9A6B30"/>
  <rect x="390" y="274" width="220" height="190" fill="#B88245"/>
  <path d="M390 274L446 224H666L610 274H390Z" fill="#C8AA73"/>
  <path d="M610 274L666 224V414L610 464V274Z" fill="#8D632F"/>
  <rect x="648" y="342" width="154" height="122" fill="#C8AA73"/>
  <path d="M648 342L688 306H842L802 342H648Z" fill="#D8BE91"/>
  <path d="M802 342L842 306V428L802 464V342Z" fill="#9A6B30"/>
  <path d="M196 268V464" stroke="#8D632F" stroke-width="5"/>
  <path d="M446 224V464" stroke="#8D632F" stroke-width="5"/>
  <path d="M688 306V464" stroke="#8D632F" stroke-width="5"/>
  <circle cx="230" cy="172" r="48" fill="#0B2341"/>
  <circle cx="480" cy="150" r="64" fill="#111820"/>
  <circle cx="722" cy="184" r="50" fill="#0B2341"/>
  <path d="M188 172H772" stroke="#C8AA73" stroke-width="6" stroke-dasharray="18 18"/>
</svg>
